<svg xmlns="http://www.w3.org/2000/svg" viewBox="0 0 512 512" role="img" aria-label="AlgoDomo logo">
<circle cx="312.000" cy="256.000" r="15.000" fill="#f0efed"/>
<circle cx="284.000" cy="304.497" r="15.000" fill="#f0efed"/>
<circle cx="228.000" cy="304.497" r="15.000" fill="#f0efed"/>
<circle cx="200.000" cy="256.000" r="15.000" fill="#f0efed"/>
<circle cx="228.000" cy="207.503" r="15.000" fill="#f0efed"/>
<circle cx="284.000" cy="207.503" r="15.000" fill="#f0efed"/>
<circle cx="339.693" cy="283.193" r="12.500" fill="#f0efed"/>
<circle cx="307.725" cy="327.193" r="12.500" fill="#f0efed"/>
<circle cx="256.000" cy="344.000" r="12.500" fill="#f0efed"/>
<circle cx="204.275" cy="327.193" r="12.500" fill="#f0efed"/>
<circle cx="172.307" cy="283.193" r="12.500" fill="#f0efed"/>
<circle cx="172.307" cy="228.807" r="12.500" fill="#f0efed"/>
<circle cx="204.275" cy="184.807" r="12.500" fill="#f0efed"/>
<circle cx="256.000" cy="168.000" r="12.500" fill="#f0efed"/>
<circle cx="307.725" cy="184.807" r="12.500" fill="#f0efed"/>
<circle cx="339.693" cy="228.807" r="12.500" fill="#f0efed"/>
<circle cx="374.000" cy="256.000" r="10.000" fill="#f0efed"/>
<circle cx="362.314" cy="307.198" r="10.000" fill="#f0efed"/>
<circle cx="329.572" cy="348.256" r="10.000" fill="#f0efed"/>
<circle cx="282.257" cy="371.041" r="10.000" fill="#f0efed"/>
<circle cx="229.743" cy="371.041" r="10.000" fill="#f0efed"/>
<circle cx="182.428" cy="348.256" r="10.000" fill="#f0efed"/>
<circle cx="149.686" cy="307.198" r="10.000" fill="#f0efed"/>
<circle cx="138.000" cy="256.000" r="10.000" fill="#f0efed"/>
<circle cx="149.686" cy="204.802" r="10.000" fill="#f0efed"/>
<circle cx="182.428" cy="163.744" r="10.000" fill="#f0efed"/>
<circle cx="229.743" cy="140.959" r="10.000" fill="#f0efed"/>
<circle cx="282.257" cy="140.959" r="10.000" fill="#f0efed"/>
<circle cx="329.572" cy="163.744" r="10.000" fill="#f0efed"/>
<circle cx="362.314" cy="204.802" r="10.000" fill="#f0efed"/>
<circle cx="401.752" cy="281.700" r="7.600" fill="#f0efed"/>
<circle cx="384.172" cy="330.000" r="7.600" fill="#f0efed"/>
<circle cx="351.133" cy="369.375" r="7.600" fill="#f0efed"/>
<circle cx="306.619" cy="395.075" r="7.600" fill="#f0efed"/>
<circle cx="256.000" cy="404.000" r="7.600" fill="#f0efed"/>
<circle cx="205.381" cy="395.075" r="7.600" fill="#f0efed"/>
<circle cx="160.867" cy="369.375" r="7.600" fill="#f0efed"/>
<circle cx="127.828" cy="330.000" r="7.600" fill="#f0efed"/>
<circle cx="110.248" cy="281.700" r="7.600" fill="#f0efed"/>
<circle cx="110.248" cy="230.300" r="7.600" fill="#f0efed"/>
<circle cx="127.828" cy="182.000" r="7.600" fill="#f0efed"/>
<circle cx="160.867" cy="142.625" r="7.600" fill="#f0efed"/>
<circle cx="205.381" cy="116.925" r="7.600" fill="#f0efed"/>
<circle cx="256.000" cy="108.000" r="7.600" fill="#f0efed"/>
<circle cx="306.619" cy="116.925" r="7.600" fill="#f0efed"/>
<circle cx="351.133" cy="142.625" r="7.600" fill="#f0efed"/>
<circle cx="384.172" cy="182.000" r="7.600" fill="#f0efed"/>
<circle cx="401.752" cy="230.300" r="7.600" fill="#f0efed"/>
<circle cx="432.000" cy="256.000" r="5.800" fill="#f0efed"/>
<circle cx="424.871" cy="305.585" r="5.800" fill="#f0efed"/>
<circle cx="404.061" cy="351.153" r="5.800" fill="#f0efed"/>
<circle cx="371.255" cy="389.012" r="5.800" fill="#f0efed"/>
<circle cx="329.113" cy="416.095" r="5.800" fill="#f0efed"/>
<circle cx="281.047" cy="430.209" r="5.800" fill="#f0efed"/>
<circle cx="230.953" cy="430.209" r="5.800" fill="#f0efed"/>
<circle cx="182.887" cy="416.095" r="5.800" fill="#f0efed"/>
<circle cx="140.745" cy="389.012" r="5.800" fill="#f0efed"/>
<circle cx="107.939" cy="351.153" r="5.800" fill="#f0efed"/>
<circle cx="87.129" cy="305.585" r="5.800" fill="#f0efed"/>
<circle cx="80.000" cy="256.000" r="5.800" fill="#f0efed"/>
<circle cx="87.129" cy="206.415" r="5.800" fill="#f0efed"/>
<circle cx="107.939" cy="160.847" r="5.800" fill="#f0efed"/>
<circle cx="140.745" cy="122.988" r="5.800" fill="#f0efed"/>
<circle cx="182.887" cy="95.905" r="5.800" fill="#f0efed"/>
<circle cx="230.953" cy="81.791" r="5.800" fill="#f0efed"/>
<circle cx="281.047" cy="81.791" r="5.800" fill="#f0efed"/>
<circle cx="329.113" cy="95.905" r="5.800" fill="#f0efed"/>
<circle cx="371.255" cy="122.988" r="5.800" fill="#f0efed"/>
<circle cx="404.061" cy="160.847" r="5.800" fill="#f0efed"/>
<circle cx="424.871" cy="206.415" r="5.800" fill="#f0efed"/>
<circle cx="456.527" cy="280.348" r="4.300" fill="#f0efed"/>
<circle cx="444.873" cy="327.630" r="4.300" fill="#f0efed"/>
<circle cx="422.243" cy="370.749" r="4.300" fill="#f0efed"/>
<circle cx="389.951" cy="407.199" r="4.300" fill="#f0efed"/>
<circle cx="349.874" cy="434.862" r="4.300" fill="#f0efed"/>
<circle cx="304.342" cy="452.130" r="4.300" fill="#f0efed"/>
<circle cx="256.000" cy="458.000" r="4.300" fill="#f0efed"/>
<circle cx="207.658" cy="452.130" r="4.300" fill="#f0efed"/>
<circle cx="162.126" cy="434.862" r="4.300" fill="#f0efed"/>
<circle cx="122.049" cy="407.199" r="4.300" fill="#f0efed"/>
<circle cx="89.757" cy="370.749" r="4.300" fill="#f0efed"/>
<circle cx="67.127" cy="327.630" r="4.300" fill="#f0efed"/>
<circle cx="55.473" cy="280.348" r="4.300" fill="#f0efed"/>
<circle cx="55.473" cy="231.652" r="4.300" fill="#f0efed"/>
<circle cx="67.127" cy="184.370" r="4.300" fill="#f0efed"/>
<circle cx="89.757" cy="141.251" r="4.300" fill="#f0efed"/>
<circle cx="122.049" cy="104.801" r="4.300" fill="#f0efed"/>
<circle cx="162.126" cy="77.138" r="4.300" fill="#f0efed"/>
<circle cx="207.658" cy="59.870" r="4.300" fill="#f0efed"/>
<circle cx="256.000" cy="54.000" r="4.300" fill="#f0efed"/>
<circle cx="304.342" cy="59.870" r="4.300" fill="#f0efed"/>
<circle cx="349.874" cy="77.138" r="4.300" fill="#f0efed"/>
<circle cx="389.951" cy="104.801" r="4.300" fill="#f0efed"/>
<circle cx="422.243" cy="141.251" r="4.300" fill="#f0efed"/>
<circle cx="444.873" cy="184.370" r="4.300" fill="#f0efed"/>
<circle cx="456.527" cy="231.652" r="4.300" fill="#f0efed"/>
<circle cx="480.000" cy="256.000" r="3.100" fill="#f0efed"/>
<circle cx="475.105" cy="302.572" r="3.100" fill="#f0efed"/>
<circle cx="460.634" cy="347.109" r="3.100" fill="#f0efed"/>
<circle cx="437.220" cy="387.664" r="3.100" fill="#f0efed"/>
<circle cx="405.885" cy="422.464" r="3.100" fill="#f0efed"/>
<circle cx="368.000" cy="449.990" r="3.100" fill="#f0efed"/>
<circle cx="325.220" cy="469.037" r="3.100" fill="#f0efed"/>
<circle cx="279.414" cy="478.773" r="3.100" fill="#f0efed"/>
<circle cx="232.586" cy="478.773" r="3.100" fill="#f0efed"/>
<circle cx="186.780" cy="469.037" r="3.100" fill="#f0efed"/>
<circle cx="144.000" cy="449.990" r="3.100" fill="#f0efed"/>
<circle cx="106.115" cy="422.464" r="3.100" fill="#f0efed"/>
<circle cx="74.780" cy="387.664" r="3.100" fill="#f0efed"/>
<circle cx="51.366" cy="347.109" r="3.100" fill="#f0efed"/>
<circle cx="36.895" cy="302.572" r="3.100" fill="#f0efed"/>
<circle cx="32.000" cy="256.000" r="3.100" fill="#f0efed"/>
<circle cx="36.895" cy="209.428" r="3.100" fill="#f0efed"/>
<circle cx="51.366" cy="164.891" r="3.100" fill="#f0efed"/>
<circle cx="74.780" cy="124.336" r="3.100" fill="#f0efed"/>
<circle cx="106.115" cy="89.536" r="3.100" fill="#f0efed"/>
<circle cx="144.000" cy="62.010" r="3.100" fill="#f0efed"/>
<circle cx="186.780" cy="42.963" r="3.100" fill="#f0efed"/>
<circle cx="232.586" cy="33.227" r="3.100" fill="#f0efed"/>
<circle cx="279.414" cy="33.227" r="3.100" fill="#f0efed"/>
<circle cx="325.220" cy="42.963" r="3.100" fill="#f0efed"/>
<circle cx="368.000" cy="62.010" r="3.100" fill="#f0efed"/>
<circle cx="405.885" cy="89.536" r="3.100" fill="#f0efed"/>
<circle cx="437.220" cy="124.336" r="3.100" fill="#f0efed"/>
<circle cx="460.634" cy="164.891" r="3.100" fill="#f0efed"/>
<circle cx="475.105" cy="209.428" r="3.100" fill="#f0efed"/>
<circle cx="496.968" cy="278.329" r="2.200" fill="#f0efed"/>
<circle cx="488.762" cy="322.226" r="2.200" fill="#f0efed"/>
<circle cx="472.630" cy="363.869" r="2.200" fill="#f0efed"/>
<circle cx="449.120" cy="401.838" r="2.200" fill="#f0efed"/>
<circle cx="419.034" cy="434.840" r="2.200" fill="#f0efed"/>
<circle cx="383.397" cy="461.753" r="2.200" fill="#f0efed"/>
<circle cx="343.420" cy="481.658" r="2.200" fill="#f0efed"/>
<circle cx="300.467" cy="493.879" r="2.200" fill="#f0efed"/>
<circle cx="256.000" cy="498.000" r="2.200" fill="#f0efed"/>
<circle cx="211.533" cy="493.879" r="2.200" fill="#f0efed"/>
<circle cx="168.580" cy="481.658" r="2.200" fill="#f0efed"/>
<circle cx="128.603" cy="461.753" r="2.200" fill="#f0efed"/>
<circle cx="92.966" cy="434.840" r="2.200" fill="#f0efed"/>
<circle cx="62.880" cy="401.838" r="2.200" fill="#f0efed"/>
<circle cx="39.370" cy="363.869" r="2.200" fill="#f0efed"/>
<circle cx="23.238" cy="322.226" r="2.200" fill="#f0efed"/>
<circle cx="15.032" cy="278.329" r="2.200" fill="#f0efed"/>
<circle cx="15.032" cy="233.671" r="2.200" fill="#f0efed"/>
<circle cx="23.238" cy="189.774" r="2.200" fill="#f0efed"/>
<circle cx="39.370" cy="148.131" r="2.200" fill="#f0efed"/>
<circle cx="62.880" cy="110.162" r="2.200" fill="#f0efed"/>
<circle cx="92.966" cy="77.160" r="2.200" fill="#f0efed"/>
<circle cx="128.603" cy="50.247" r="2.200" fill="#f0efed"/>
<circle cx="168.580" cy="30.342" r="2.200" fill="#f0efed"/>
<circle cx="211.533" cy="18.121" r="2.200" fill="#f0efed"/>
<circle cx="256.000" cy="14.000" r="2.200" fill="#f0efed"/>
<circle cx="300.467" cy="18.121" r="2.200" fill="#f0efed"/>
<circle cx="343.420" cy="30.342" r="2.200" fill="#f0efed"/>
<circle cx="383.397" cy="50.247" r="2.200" fill="#f0efed"/>
<circle cx="419.034" cy="77.160" r="2.200" fill="#f0efed"/>
<circle cx="449.120" cy="110.162" r="2.200" fill="#f0efed"/>
<circle cx="472.630" cy="148.131" r="2.200" fill="#f0efed"/>
<circle cx="488.762" cy="189.774" r="2.200" fill="#f0efed"/>
<circle cx="496.968" cy="233.671" r="2.200" fill="#f0efed"/>
<circle cx="510.000" cy="256.000" r="1.500" fill="#f0efed"/>
<circle cx="506.536" cy="297.807" r="1.500" fill="#f0efed"/>
<circle cx="496.238" cy="338.474" r="1.500" fill="#f0efed"/>
<circle cx="479.386" cy="376.891" r="1.500" fill="#f0efed"/>
<circle cx="456.442" cy="412.010" r="1.500" fill="#f0efed"/>
<circle cx="428.030" cy="442.874" r="1.500" fill="#f0efed"/>
<circle cx="394.925" cy="468.640" r="1.500" fill="#f0efed"/>
<circle cx="358.031" cy="488.606" r="1.500" fill="#f0efed"/>
<circle cx="318.353" cy="502.228" r="1.500" fill="#f0efed"/>
<circle cx="276.975" cy="509.132" r="1.500" fill="#f0efed"/>
<circle cx="235.025" cy="509.132" r="1.500" fill="#f0efed"/>
<circle cx="193.647" cy="502.228" r="1.500" fill="#f0efed"/>
<circle cx="153.969" cy="488.606" r="1.500" fill="#f0efed"/>
<circle cx="117.075" cy="468.640" r="1.500" fill="#f0efed"/>
<circle cx="83.970" cy="442.874" r="1.500" fill="#f0efed"/>
<circle cx="55.558" cy="412.010" r="1.500" fill="#f0efed"/>
<circle cx="32.614" cy="376.891" r="1.500" fill="#f0efed"/>
<circle cx="15.762" cy="338.474" r="1.500" fill="#f0efed"/>
<circle cx="5.464" cy="297.807" r="1.500" fill="#f0efed"/>
<circle cx="2.000" cy="256.000" r="1.500" fill="#f0efed"/>
<circle cx="5.464" cy="214.193" r="1.500" fill="#f0efed"/>
<circle cx="15.762" cy="173.526" r="1.500" fill="#f0efed"/>
<circle cx="32.614" cy="135.109" r="1.500" fill="#f0efed"/>
<circle cx="55.558" cy="99.990" r="1.500" fill="#f0efed"/>
<circle cx="83.970" cy="69.126" r="1.500" fill="#f0efed"/>
<circle cx="117.075" cy="43.360" r="1.500" fill="#f0efed"/>
<circle cx="153.969" cy="23.394" r="1.500" fill="#f0efed"/>
<circle cx="193.647" cy="9.772" r="1.500" fill="#f0efed"/>
<circle cx="235.025" cy="2.868" r="1.500" fill="#f0efed"/>
<circle cx="276.975" cy="2.868" r="1.500" fill="#f0efed"/>
<circle cx="318.353" cy="9.772" r="1.500" fill="#f0efed"/>
<circle cx="358.031" cy="23.394" r="1.500" fill="#f0efed"/>
<circle cx="394.925" cy="43.360" r="1.500" fill="#f0efed"/>
<circle cx="428.030" cy="69.126" r="1.500" fill="#f0efed"/>
<circle cx="456.442" cy="99.990" r="1.500" fill="#f0efed"/>
<circle cx="479.386" cy="135.109" r="1.500" fill="#f0efed"/>
<circle cx="496.238" cy="173.526" r="1.500" fill="#f0efed"/>
<circle cx="506.536" cy="214.193" r="1.500" fill="#f0efed"/>
</svg>
